<svg id="Layer_1" data-name="Layer 1" xmlns="http://www.w3.org/2000/svg" viewBox="0 0 73 73"><defs><style>.cls-1{fill:#f57e20;}.cls-2{fill-rule:evenodd;}.cls-3{fill:#f7f7eb;}</style></defs><title>addnew</title><circle class="cls-1" cx="36.5" cy="36.5" r="36.5"/><path class="cls-2" d="M300.5,404a.5.5,0,0,0-1,0v16.82H281.59a.5.5,0,0,0-.5.5.5.5,0,0,0,.5.5H299.5v18a.5.5,0,0,0,1,0v-18h16.91a.5.5,0,0,0,.5-.5.5.5,0,0,0-.5-.5H300.5Z" transform="translate(-263 -385.42)"/><path class="cls-3" d="M299.5,420.83v4h4v-4Zm-17.91,0v-4h0Zm-.5.5h0Zm.5.5v-4h0Zm17.91,0h4v-4h-4Zm0,18h0Zm1,0h0Zm0-18v-4h-4v4Zm16.91,0v0Zm0-1v0Zm-16.91,0h-4v4h4Zm-.5-13.32a3.5,3.5,0,0,1-3.5-3.5h8a4.49,4.49,0,0,0-4.5-4.5Zm3.5-3.5a3.5,3.5,0,0,1-3.5,3.5v-8a4.49,4.49,0,0,0-4.5,4.5Zm0,16.82V404h-8v16.82Zm-21.91,4H299.5v-8H281.59Zm3.5-3.5a3.5,3.5,0,0,1-3.5,3.5v-8a4.5,4.5,0,0,0-4.5,4.5Zm-3.5-3.5a3.5,3.5,0,0,1,3.5,3.5h-8a4.49,4.49,0,0,0,4.5,4.5Zm17.91,0H281.59v8H299.5Zm4,22v-18h-8v18Zm-3.5-3.5a3.5,3.5,0,0,1,3.5,3.5h-8a4.5,4.5,0,0,0,4.5,4.5Zm-3.5,3.5a3.5,3.5,0,0,1,3.5-3.5v8a4.5,4.5,0,0,0,4.5-4.5Zm0-18v18h8v-18Zm20.91-4H300.5v8h16.91Zm-3.5,3.5a3.5,3.5,0,0,1,3.5-3.5v8a4.49,4.49,0,0,0,4.5-4.5Zm3.5,3.5a3.5,3.5,0,0,1-3.5-3.5h8a4.5,4.5,0,0,0-4.5-4.5Zm-16.91,0h16.91v-8H300.5Zm-4-20.82v16.82h8V404Z" transform="translate(-263 -385.42)"/></svg>