<svg xmlns="http://www.w3.org/2000/svg" viewBox="0 0 80.61 80.61"><defs><style>.cls-1,.cls-2{fill:none;stroke:#f7f7eb;stroke-width:5px;}.cls-1{stroke-linecap:round;stroke-linejoin:round;}.cls-2{stroke-miterlimit:10;}</style></defs><title>Asset 8</title><g id="Layer_2" data-name="Layer 2"><circle class="cls-1" cx="40.3" cy="40.3" r="10.31"/><path class="cls-2" d="M65.74,50.61a5.67,5.67,0,0,0,1.13,6.26l.21.21a6.88,6.88,0,0,1,0,9.72h0a6.87,6.87,0,0,1-9.72,0h0l-.21-.21a5.72,5.72,0,0,0-9.69,4.06v.58a6.87,6.87,0,1,1-13.74,0v-.3A5.67,5.67,0,0,0,30,65.74a5.66,5.66,0,0,0-6.25,1.13l-.21.21a6.88,6.88,0,0,1-9.72,0h0a6.87,6.87,0,0,1,0-9.72h0l.2-.21a5.71,5.71,0,0,0-4-9.69H9.37a6.87,6.87,0,0,1,0-13.74h.31A5.67,5.67,0,0,0,14.87,30a5.66,5.66,0,0,0-1.13-6.25l-.21-.21a6.87,6.87,0,0,1,0-9.72h0a6.87,6.87,0,0,1,9.72,0h0l.2.2a5.69,5.69,0,0,0,6.26,1.14H30A5.67,5.67,0,0,0,33.43,10V9.37a6.88,6.88,0,0,1,13.75,0v.31a5.72,5.72,0,0,0,9.69,4.06l.21-.21a6.87,6.87,0,0,1,9.72,0h0a6.87,6.87,0,0,1,0,9.72h0l-.21.2a5.67,5.67,0,0,0-1.13,6.26V30a5.67,5.67,0,0,0,5.19,3.44h.58a6.88,6.88,0,1,1,0,13.75h-.3A5.68,5.68,0,0,0,65.74,50.61Z"/></g></svg>