<svg xmlns="http://www.w3.org/2000/svg" viewBox="0 0 60.66 79.21"><defs><style>.cls-1{fill:none;stroke:#f7f7eb;stroke-linecap:round;stroke-linejoin:round;stroke-width:5px;}</style></defs><title>Asset 5</title><g id="Layer_2" data-name="Layer 2"><line class="cls-1" x1="49.04" y1="12.02" x2="54.58" y2="12.02"/><path class="cls-1" d="M54.58,12a3.59,3.59,0,0,1,3.58,3.61"/><line class="cls-1" x1="58.16" y1="15.63" x2="58.16" y2="73.09"/><path class="cls-1" d="M58.16,73.09a3.6,3.6,0,0,1-3.57,3.62"/><line class="cls-1" x1="54.58" y1="76.71" x2="6.08" y2="76.71"/><path class="cls-1" d="M6.08,76.71A3.6,3.6,0,0,1,2.5,73.09"/><line class="cls-1" x1="2.5" y1="73.09" x2="2.5" y2="15.63"/><path class="cls-1" d="M2.5,15.63A3.59,3.59,0,0,1,6.08,12"/><line class="cls-1" x1="6.08" y1="12.02" x2="10.86" y2="12.02"/><polyline class="cls-1" points="45.65 6.73 36.43 6.73 36.43 5.94"/><path class="cls-1" d="M36.43,5.94A3.42,3.42,0,0,0,33,2.5"/><line class="cls-1" x1="33.04" y1="2.5" x2="27.63" y2="2.5"/><path class="cls-1" d="M27.63,2.5a3.43,3.43,0,0,0-3.4,3.44"/><polyline class="cls-1" points="24.23 5.94 24.23 6.73 15.02 6.73"/><path class="cls-1" d="M15,6.73a3.42,3.42,0,0,0-3.39,3.44"/><polyline class="cls-1" points="11.63 10.17 11.63 17.48 49.04 17.48 49.04 10.17"/><path class="cls-1" d="M49,10.17a3.41,3.41,0,0,0-3.39-3.44"/><line class="cls-1" x1="11.79" y1="34.85" x2="14.86" y2="37.71"/><line class="cls-1" x1="20.5" y1="31.48" x2="14.86" y2="37.71"/><line class="cls-1" x1="25.86" y1="35.23" x2="48.87" y2="35.23"/><line class="cls-1" x1="25.86" y1="63.12" x2="48.87" y2="63.12"/><line class="cls-1" x1="25.86" y1="49.38" x2="48.87" y2="49.38"/></g></svg>