<svg id="Layer_1" data-name="Layer 1" xmlns="http://www.w3.org/2000/svg" viewBox="0 0 40 40"><defs><style>.cls-1{fill:#c4c4c4;}.cls-2{fill:#f7f7eb;}</style></defs><title>usernameicon</title><circle class="cls-1" cx="20" cy="20" r="20"/><path class="cls-2" d="M287,427a1.1,1.1,0,0,1-.81-.29,1,1,0,0,1-.29-.79V415.37a1.14,1.14,0,0,1,.3-.83,1.18,1.18,0,0,1,.85-.32,1.15,1.15,0,0,1,.85.32,1.11,1.11,0,0,1,.32.83v9.72h5.06q1.08,0,1.08,1c0,.63-.36.95-1.08.95Zm21.59-12.78a1.07,1.07,0,0,1,.81.32,1.15,1.15,0,0,1,.31.83V426a1.08,1.08,0,0,1-.29.79,1,1,0,0,1-.76.29,1,1,0,0,1-.74-.29,1.11,1.11,0,0,1-.27-.79v-7.42l-3.06,5.8a2,2,0,0,1-.46.59,1,1,0,0,1-.6.18,1,1,0,0,1-.59-.18,1.63,1.63,0,0,1-.47-.59l-3.08-5.71V426a1.07,1.07,0,0,1-.29.79,1.08,1.08,0,0,1-1.47,0,1.11,1.11,0,0,1-.27-.79V415.37a1.14,1.14,0,0,1,.29-.83,1.07,1.07,0,0,1,.81-.32,1.21,1.21,0,0,1,1.09.77l4,7.62,4-7.62A1.19,1.19,0,0,1,308.56,414.22Z" transform="translate(-277.5 -401)"/></svg>